<svg xmlns="http://www.w3.org/2000/svg" width="800" height="600" viewBox="0 0 800 600">
  <defs>
    <linearGradient id="grad1" x1="0%" y1="0%" x2="100%" y2="100%">
      <stop offset="0%" style="stop-color:#3a3f6d;stop-opacity:1" />
      <stop offset="100%" style="stop-color:#2c3e50;stop-opacity:1" />
    </linearGradient>
    <linearGradient id="grad2" x1="0%" y1="0%" x2="100%" y2="100%">
      <stop offset="0%" style="stop-color:#4a90e2;stop-opacity:0.7" />
      <stop offset="100%" style="stop-color:#5ce5b4;stop-opacity:0.7" />
    </linearGradient>
  </defs>
  
  <!-- Background -->
  <rect width="800" height="600" fill="url(#grad1)" />
  
  <!-- Neural network nodes and connections -->
  <g opacity="0.2">
    <!-- Horizontal lines -->
    <line x1="100" y1="100" x2="700" y2="100" stroke="white" stroke-width="1" />
    <line x1="100" y1="200" x2="700" y2="200" stroke="white" stroke-width="1" />
    <line x1="100" y1="300" x2="700" y2="300" stroke="white" stroke-width="1" />
    <line x1="100" y1="400" x2="700" y2="400" stroke="white" stroke-width="1" />
    <line x1="100" y1="500" x2="700" y2="500" stroke="white" stroke-width="1" />
    
    <!-- Vertical lines -->
    <line x1="100" y1="100" x2="100" y2="500" stroke="white" stroke-width="1" />
    <line x1="200" y1="100" x2="200" y2="500" stroke="white" stroke-width="1" />
    <line x1="300" y1="100" x2="300" y2="500" stroke="white" stroke-width="1" />
    <line x1="400" y1="100" x2="400" y2="500" stroke="white" stroke-width="1" />
    <line x1="500" y1="100" x2="500" y2="500" stroke="white" stroke-width="1" />
    <line x1="600" y1="100" x2="600" y2="500" stroke="white" stroke-width="1" />
    <line x1="700" y1="100" x2="700" y2="500" stroke="white" stroke-width="1" />
  </g>
  
  <!-- Nodes -->
  <g>
    <circle cx="200" cy="200" r="15" fill="url(#grad2)" />
    <circle cx="300" cy="150" r="10" fill="url(#grad2)" />
    <circle cx="400" cy="250" r="20" fill="url(#grad2)" />
    <circle cx="500" cy="200" r="12" fill="url(#grad2)" />
    <circle cx="600" cy="300" r="18" fill="url(#grad2)" />
    <circle cx="250" cy="350" r="14" fill="url(#grad2)" />
    <circle cx="350" cy="400" r="16" fill="url(#grad2)" />
    <circle cx="450" cy="350" r="10" fill="url(#grad2)" />
    <circle cx="550" cy="400" r="15" fill="url(#grad2)" />
  </g>
  
  <!-- Connections -->
  <g opacity="0.6">
    <line x1="200" y1="200" x2="300" y2="150" stroke="white" stroke-width="1" />
    <line x1="300" y1="150" x2="400" y2="250" stroke="white" stroke-width="1" />
    <line x1="400" y1="250" x2="500" y2="200" stroke="white" stroke-width="1" />
    <line x1="500" y1="200" x2="600" y2="300" stroke="white" stroke-width="1" />
    <line x1="200" y1="200" x2="250" y2="350" stroke="white" stroke-width="1" />
    <line x1="300" y1="150" x2="350" y2="400" stroke="white" stroke-width="1" />
    <line x1="400" y1="250" x2="450" y2="350" stroke="white" stroke-width="1" />
    <line x1="500" y1="200" x2="550" y2="400" stroke="white" stroke-width="1" />
    <line x1="250" y1="350" x2="350" y2="400" stroke="white" stroke-width="1" />
    <line x1="350" y1="400" x2="450" y2="350" stroke="white" stroke-width="1" />
    <line x1="450" y1="350" x2="550" y2="400" stroke="white" stroke-width="1" />
  </g>
  
  <!-- Animated particles -->
  <g>
    <circle cx="250" cy="175" r="3" fill="white">
      <animate attributeName="cy" from="175" to="350" dur="3s" repeatCount="indefinite" />
    </circle>
    <circle cx="350" cy="150" r="3" fill="white">
      <animate attributeName="cy" from="150" to="400" dur="4s" repeatCount="indefinite" />
    </circle>
    <circle cx="450" cy="250" r="3" fill="white">
      <animate attributeName="cy" from="250" to="350" dur="2.5s" repeatCount="indefinite" />
    </circle>
    <circle cx="550" cy="200" r="3" fill="white">
      <animate attributeName="cy" from="200" to="400" dur="3.5s" repeatCount="indefinite" />
    </circle>
  </g>
</svg> 