<svg xmlns="http://www.w3.org/2000/svg" width="80" height="30" viewBox="0 0 80 30">
  <path fill="#252F3E" d="M24.7 9.8c0 1.1.1 2 .3 2.6.2.6.5 1.3.9 2 .1.2.2.4.2.5 0 .2-.1.4-.4.6l-1.3.9c-.2.1-.4.2-.5.2-.2 0-.4-.1-.6-.3-.3-.3-.5-.6-.7-1-.2-.4-.4-.8-.6-1.3-1.4 1.7-3.2 2.5-5.4 2.5-1.5 0-2.8-.4-3.7-1.3-.9-.9-1.3-2-1.3-3.5 0-1.6.5-2.8 1.6-3.8 1.1-.9 2.5-1.4 4.4-1.4.6 0 1.2 0 1.9.1.7.1 1.3.2 2 .4v-1.3c0-1.3-.3-2.3-.8-2.8-.5-.6-1.4-.9-2.7-.9-.6 0-1.2.1-1.8.2-.6.1-1.2.3-1.8.5-.3.1-.5.2-.6.2-.1 0-.2 0-.3-.1-.1-.1-.1-.2-.1-.4v-.6c0-.2 0-.4.1-.5.1-.1.2-.2.4-.3.5-.3 1.1-.5 1.9-.7.8-.2 1.6-.3 2.5-.3 1.9 0 3.3.4 4.2 1.3.9.9 1.4 2.2 1.4 4v5.3zm-7.5 2.5c.6 0 1.2-.1 1.8-.3.6-.2 1.2-.6 1.6-1.1.3-.3.5-.7.6-1.1.1-.4.2-1 .2-1.7v-.8c-.5-.1-1-.2-1.6-.3-.5-.1-1.1-.1-1.6-.1-1.1 0-2 .2-2.6.7-.6.4-.9 1.1-.9 1.9 0 .8.2 1.3.6 1.7.4.4 1 .6 1.8.6zm13.8 1.8c-.2 0-.4-.1-.5-.2-.1-.1-.2-.3-.3-.6l-3.3-10.8c-.1-.3-.1-.5-.1-.6 0-.2.1-.4.4-.4h1.6c.3 0 .5.1.6.2.1.1.2.3.3.6l2.3 9.2 2.2-9.2c.1-.3.2-.5.3-.6.1-.1.3-.2.6-.2h1.3c.3 0 .5.1.6.2.1.1.2.3.3.6l2.2 9.3 2.4-9.3c.1-.3.2-.5.3-.6.1-.1.3-.2.6-.2h1.5c.2 0 .4.1.4.4 0 .1 0 .2-.1.3 0 .1-.1.3-.1.4l-3.4 10.8c-.1.3-.2.5-.3.6-.1.1-.3.2-.5.2h-1.4c-.3 0-.5-.1-.6-.2-.1-.1-.2-.3-.3-.6l-2.2-9-2.1 9c-.1.3-.2.5-.3.6-.1.1-.3.2-.6.2h-1.4zm20.3.4c-.8 0-1.7-.1-2.5-.3-.8-.2-1.4-.4-1.9-.7-.2-.1-.4-.3-.4-.4-.1-.2-.1-.3-.1-.5v-.6c0-.2.1-.3.2-.4.1-.1.2-.1.3-.1.1 0 .2 0 .3.1.1 0 .3.1.4.2.6.3 1.2.5 1.8.6.7.1 1.3.2 2 .2.1 0 .2 0 .3 0 .1 0 .2 0 .3 0 .8 0 1.4-.1 1.9-.4.5-.3.7-.7.7-1.2 0-.3-.1-.6-.3-.8-.2-.2-.6-.4-1.2-.6l-1.7-.5c-1.2-.4-2-.8-2.5-1.4-.5-.6-.8-1.2-.8-1.9 0-.5.1-1 .4-1.5.3-.4.6-.8 1.1-1.1.4-.3 1-.5 1.5-.7.6-.2 1.2-.2 1.8-.2.3 0 .6 0 .9 0 .3 0 .6.1.9.1.3.1.5.1.8.2.3.1.5.2.7.3.2.1.4.2.5.4.1.1.2.3.2.4 0 .2 0 .3-.1.5l-.3.5c-.1.2-.2.2-.3.3-.1 0-.3 0-.4-.1-.1 0-.3-.1-.5-.2-.4-.2-.9-.3-1.3-.4-.5-.1-.9-.1-1.4-.1-.8 0-1.4.1-1.8.4-.4.3-.6.6-.6 1.1 0 .3.1.6.3.8.2.2.7.4 1.3.6l1.7.5c1.1.3 1.9.8 2.4 1.3.5.6.7 1.2.7 1.9 0 .6-.1 1.1-.4 1.5-.3.5-.6.8-1.1 1.2-.5.3-1 .6-1.6.7-.6.2-1.3.3-2 .3zm9.6-13.7c-.3 0-.6-.1-.8-.3-.2-.2-.3-.5-.3-.8 0-.3.1-.6.3-.8.2-.2.5-.3.8-.3.3 0 .6.1.8.3.2.2.3.5.3.8 0 .3-.1.6-.3.8-.2.2-.5.3-.8.3zm-1.5 15.1c-.2 0-.4-.1-.5-.2-.1-.1-.2-.3-.2-.6V5.9c0-.3.1-.5.2-.6.1-.1.3-.2.5-.2h1.5c.2 0 .4.1.5.2.1.1.2.3.2.6v8.3c0 .3-.1.5-.2.6-.1.1-.3.2-.5.2h-1.5zm8.5 0c-.2 0-.4-.1-.5-.2-.1-.1-.2-.3-.2-.6V5.9c0-.3.1-.5.2-.6.1-.1.3-.2.5-.2h1.5c.2 0 .4.1.5.2.1.1.2.3.2.6v8.3c0 .3-.1.5-.2.6-.1.1-.3.2-.5.2h-1.5zm8.5.4c-2.1 0-3.8-.6-5-1.8-1.2-1.2-1.8-2.9-1.8-5 0-2.2.6-4 1.7-5.2 1.1-1.2 2.7-1.9 4.6-1.9 1.8 0 3.2.5 4.3 1.6 1 1.1 1.6 2.6 1.6 4.5v.9c0 .3-.1.5-.2.6-.1.1-.3.2-.5.2h-7.9c0 1.1.3 1.9.9 2.5.6.6 1.4.9 2.5.9.5 0 1-.1 1.5-.2.4-.1.9-.3 1.3-.5.2-.1.3-.2.4-.2.1 0 .2 0 .3.1.1.1.1.2.1.4v.8c0 .2 0 .3-.1.4-.1.1-.2.2-.4.3-.4.2-.9.4-1.5.6-.6.1-1.2.2-1.8.2zm-3.5-7.8h5.9c0-.8-.2-1.5-.6-2-.4-.5-1-.7-1.9-.7-.8 0-1.4.2-1.9.7-.5.5-.8 1.2-.9 2z"/>
  <path fill="#FF9900" d="M71.3 21.9c-4.3 3.2-10.5 4.9-15.9 4.9-7.5 0-14.2-2.8-19.3-7.4-.4-.4 0-.9.4-.6 5.6 3.2 12.4 5.2 19.5 5.2 4.8 0 10.1-1 14.9-3.1.7-.3 1.3.5.6 1z"/>
  <path fill="#FF9900" d="M73.6 19.3c-.5-.7-3.6-.3-4.9-.2-.4 0-.5-.3-.1-.6 2.4-1.7 6.4-1.2 6.8-.6.4.6-.1 4.5-2.4 6.3-.3.3-.7.1-.5-.2.5-1.3 1.6-4.1 1.1-4.8z"/>
</svg> 