<svg xmlns="http://www.w3.org/2000/svg" width="80" height="30" viewBox="0 0 80 30">
  <path fill="#0078D4" d="M29.5 6.5l-9.9 17.4H29l-1.7 3.6H13.8l11.6-21h4.1z"/>
  <path fill="#0078D4" d="M32.4 27.5l5.4-9.3 5.4 9.3H32.4zm11.7 0h4.1l-9.5-21h-3.7l3.6 7.9 5.5 13.1z"/>
  <path fill="#0078D4" d="M53.5 19.9c0-.5.1-1 .4-1.4.3-.4.6-.8 1.1-1 .5-.3 1-.4 1.6-.4.6 0 1.1.1 1.6.4.5.3.8.6 1.1 1 .3.4.4.9.4 1.4 0 .5-.1 1-.4 1.4-.3.4-.6.8-1.1 1-.5.3-1 .4-1.6.4-.6 0-1.1-.1-1.6-.4-.5-.3-.8-.6-1.1-1-.3-.4-.4-.9-.4-1.4zm5.4 0c0-.3-.1-.6-.2-.9-.1-.3-.3-.5-.6-.6-.2-.2-.5-.2-.8-.2-.3 0-.6.1-.8.2-.2.2-.4.4-.6.6-.1.3-.2.6-.2.9 0 .3.1.6.2.9.1.3.3.5.6.6.2.2.5.2.8.2.3 0 .6-.1.8-.2.2-.2.4-.4.6-.6.1-.3.2-.6.2-.9z"/>
  <path fill="#0078D4" d="M60.9 16.1h1.7v1.1c.2-.4.5-.7.9-.9.4-.2.8-.3 1.3-.3.8 0 1.4.2 1.9.7.5.5.7 1.2.7 2.1v4.7h-1.7v-4.3c0-.5-.1-.9-.4-1.2-.3-.3-.6-.4-1.1-.4-.5 0-.9.1-1.2.4-.3.3-.4.7-.4 1.2v4.3h-1.7v-7.4z"/>
</svg> 